<?xml version="1.0" encoding="UTF-8"?>
<svg xmlns="http://www.w3.org/2000/svg" xml:space="preserve" width="254mm" height="254mm" version="1.1" style="shape-rendering:geometricPrecision; text-rendering:geometricPrecision; image-rendering:optimizeQuality; fill-rule:evenodd; clip-rule:evenodd"
viewBox="0 0 25400 25400">
  <defs>
    <style type="text/css">
      .fil0 {fill:white}
    </style>
  </defs>
  <g id="Layer_x0020_1">
    <metadata id="CorelCorpID_0Corel-Layer"/>
    <path class="fil0" d="M796.91 10027c2069.34,3466.49 4138.69,6932.93 6208.04,10399.42 -1490.45,0 -2980.91,0 -4471.37,0 -464,29.74 -765.18,221.03 -780.39,696.03 0,1175.34 0,2350.74 0,3526.08 14.47,487.85 248.49,746.19 724.31,751.47 5403.96,0 10807.92,0 16211.88,0 535.64,-22 753.31,-296.39 790.29,-714.38 0,-1181.51 0,-2363.03 0,-3544.54 -33.75,-543.4 -375.81,-691.82 -846.38,-714.66 -1564.46,0 -3128.92,0 -4693.39,0 -2153.47,-3674.5 -4306.95,-7348.95 -6460.43,-11023.45 -2339.82,2020.4 -4317.46,1904.76 -6682.56,624.03zm7570.66 -2145.87c1701.57,0 3403.2,0 5104.76,0 27.14,965.03 166.85,965.03 685.02,965.09 766.65,0 1689.69,-0.06 2456.35,-0.06 666.58,831.31 1333.28,1662.63 1999.81,2493.94 460.05,573.37 1076.03,463.55 1645.82,120.03 1620.32,-977.55 3240.81,-1955.09 4861.14,-2932.63 706.33,-425.79 -16.57,-2284.08 -1156.43,-1610.56 -1421.65,839.45 -2843.3,1678.96 -4264.95,2518.46 -734.65,-850.56 -1469.31,-1701.17 -2203.96,-2551.73 0,-624.82 0,-1249.59 0,-1874.4 701.97,-901.63 1403.89,-1803.31 2105.87,-2704.93 1373.65,806.29 2747.29,1612.58 4121,2418.86 1257.69,738.28 2177.45,-941.74 1084.74,-1602.3 -1591.94,-961.95 -3183.83,-1924.23 -4775.71,-2886.06 -477.69,-288.59 -932.2,-372.71 -1314.68,105.83 -709.33,887.25 -1418.77,1774.74 -2128.15,2662.05 -810.3,0 -1620.55,0 -2430.85,0 -597.66,0 -616.32,0 -663.81,1018.28 -1723.45,0 -3446.84,0 -5170.29,0 692.25,1208.12 582.11,2708.19 44.32,3860.13zm-4651.15 -2983.19c562.78,0 1019.09,452.89 1019.09,1011.44 0,558.54 -456.31,1011.43 -1019.09,1011.43 -562.78,0 -1019.1,-452.89 -1019.1,-1011.43 0,-558.55 456.32,-1011.44 1019.1,-1011.44zm-0.06 -2677.04c2052.56,0 3716.47,1651.41 3716.47,3688.42 0,2037.13 -1663.91,3688.53 -3716.47,3688.53 -2052.44,0 -3716.36,-1651.4 -3716.36,-3688.53 0,-2037.01 1663.92,-3688.42 3716.36,-3688.42zm0 1521.78c1205.73,0 2183.16,970.09 2183.16,2166.64 0,1196.66 -977.43,2166.75 -2183.16,2166.75 -1205.62,0 -2183.05,-970.09 -2183.05,-2166.75 0,-1196.55 977.43,-2166.64 2183.05,-2166.64z"/>
  </g>
</svg>